<svg width="491" height="491" viewBox="0 0 491 491" fill="none" xmlns="http://www.w3.org/2000/svg">
<g clip-path="url(#clip0)">
<path d="M480.427 32.642L301.014 162.348L271.574 183.681C255.978 195.203 234.69 195.203 219.094 183.681L189.654 162.348L10.027 32.855C20.018 18.883 36.157 10.614 53.334 10.668H437.334C454.385 10.683 470.401 18.85 480.427 32.642Z" fill="#FF9B42"/>
<path d="M10.027 32.855L189.654 162.348L15.574 336.428C5.57801 326.407 -0.024992 312.823 8.02297e-06 298.668V64.002C-0.046992 52.818 3.46401 41.91 10.027 32.855Z" fill="#FB8F30"/>
<path d="M490.667 64.002V298.669C490.692 312.824 485.09 326.408 475.094 336.429L301.014 162.349L480.427 32.642C487.088 41.74 490.674 52.725 490.667 64.002Z" fill="#FB8F30"/>
<path d="M320 394.668C305.835 394.668 298.667 384.001 298.667 362.668C299.016 332.861 275.136 308.416 245.329 308.067C215.522 307.718 191.077 331.598 190.728 361.405C190.379 391.212 214.259 415.657 244.066 416.006C260.041 416.193 275.278 409.293 285.675 397.164C292.758 409.302 305.957 416.545 320 416.001C362.667 416.001 362.667 375.852 362.667 362.668C362.668 297.867 310.137 245.334 245.336 245.332C180.535 245.33 128.002 297.862 128 362.664C127.999 427.465 180.53 479.998 245.331 480C275.776 480.001 305.03 468.167 326.912 447C331.148 442.876 331.238 436.1 327.115 431.864C322.991 427.628 316.215 427.538 311.979 431.661C273.818 468.468 213.044 467.37 176.237 429.209C139.43 391.048 140.528 330.274 178.689 293.467C216.85 256.66 277.624 257.758 314.431 295.919C331.715 313.839 341.361 337.773 341.334 362.669C341.334 386.583 335.958 394.668 320 394.668ZM245.334 394.668C227.661 394.668 213.334 380.341 213.334 362.668C213.334 344.995 227.661 330.668 245.334 330.668C263.007 330.668 277.334 344.995 277.334 362.668C277.334 380.341 263.007 394.668 245.334 394.668Z" fill="#F2994A"/>
<path d="M301.014 162.348L271.574 183.681C255.978 195.203 234.69 195.203 219.094 183.681L189.654 162.348L15.574 336.428C25.595 346.424 39.179 352.027 53.334 352.001H107.2C112.971 275.718 179.488 218.556 255.772 224.327C324.031 229.491 378.282 283.742 383.446 352.001H437.334C451.489 352.026 465.073 346.424 475.094 336.428L301.014 162.348Z" fill="#F97908"/>
</g>
<defs>
<clipPath id="clip0">
<rect width="490.667" height="490.667" fill="white"/>
</clipPath>
</defs>
</svg>
