<svg width="512" height="512" viewBox="0 0 512 512" fill="none" xmlns="http://www.w3.org/2000/svg">
<path d="M253 211H313C321.284 211 328 204.284 328 196C328 187.716 321.284 181 313 181H289.213L413.607 56.607C419.465 50.749 419.465 41.252 413.607 35.394C407.75 29.536 398.252 29.536 392.394 35.394L268 159.787V136C268 127.716 261.284 121 253 121C244.716 121 238 127.716 238 136V196C238 196.015 238.002 196.03 238.002 196.044C238.028 204.259 244.698 211 253 211Z" fill="#F4831F"/>
<path d="M437 391H404V319.285C404 312.449 399.378 306.477 392.76 304.764C361.78 296.742 332.242 284.543 304.97 268.508C298.758 264.857 290.825 266.137 286.079 271.561L263.183 297.727C258.153 303.475 249.676 304.733 243.885 300.589C207.343 274.443 175.048 242.657 148.903 206.115C144.759 200.323 146.016 191.847 151.765 186.818L178.022 163.844C183.441 159.102 184.726 151.179 181.084 144.968C165.099 117.708 152.936 88.194 144.933 57.245C143.22 50.625 137.248 46 130.41 46H45.151C15.321 46 -6.318 74.515 1.674 103.364C24.36 185.239 68.27 260.428 128.657 320.804C189.043 381.179 264.753 425.08 346.641 447.762C369.589 454.119 392.548 441.702 400.8 421H437C461.813 421 482 441.187 482 466C482 474.284 488.716 481 497 481C505.284 481 512 474.284 512 466C512 424.645 478.356 391 437 391V391Z" fill="#F97908"/>
</svg>
