<svg width="512" height="512" viewBox="0 0 512 512" fill="none" xmlns="http://www.w3.org/2000/svg">
<g clip-path="url(#clip0)">
<path d="M441.443 133.2C423.444 75 376.043 27.599 317.843 9.6C297.443 3.299 276.443 0 256.043 0C214.343 0 174.144 12.9 140.544 38.101C90.742 74.7 61.043 133.2 61.043 195C61.043 237.599 74.543 278.101 100.043 312.001L256.043 512L412.043 312.001C450.142 261 460.943 195.901 441.443 133.2ZM256.043 300C198.143 300 151.043 252.9 151.043 195C151.043 137.1 198.143 90 256.043 90C313.943 90 361.043 137.1 361.043 195C361.043 252.9 313.943 300 256.043 300Z" fill="#F97908"/>
<path d="M412.043 312.001L256.043 512V300C313.943 300 361.043 252.9 361.043 195C361.043 137.1 313.943 90 256.043 90V0C276.443 0 297.443 3.3 317.843 9.6C376.043 27.599 423.444 75 441.443 133.2C460.943 195.901 450.142 261 412.043 312.001Z" fill="#F4831F"/>
</g>
<defs>
<clipPath id="clip0">
<rect width="512" height="512" fill="white"/>
</clipPath>
</defs>
</svg>
