<svg width="512" height="562" viewBox="0 0 512 562" fill="none" xmlns="http://www.w3.org/2000/svg">
<path d="M501.991 85.886L260.991 0.855C257.762 -0.285 254.239 -0.285 251.01 0.855L10.01 85.886C4.01801 88 0.00801199 93.66 1.1987e-05 100.014C-0.00798801 106.368 3.98901 112.037 9.97601 114.165L250.976 199.842C252.601 200.42 254.301 200.709 256 200.709C257.7 200.709 259.399 200.42 261.024 199.842L502.024 114.165C508.011 112.037 512.007 106.368 512 100.014C511.992 93.66 507.982 88 501.991 85.886Z" fill="url(#paint0_linear)"/>
<path d="M475.973 286.106V155.266L445.973 165.931V286.106C436.937 291.307 430.848 301.052 430.848 312.227C430.848 323.401 436.937 333.147 445.973 338.348V412.064C445.973 420.348 452.689 427.064 460.973 427.064C469.257 427.064 475.973 420.348 475.973 412.064V338.349C485.009 333.149 491.098 323.402 491.098 312.228C491.098 301.053 485.01 291.307 475.973 286.106Z" fill="url(#paint1_linear)"/>
<path d="M256 230.709C250.851 230.709 245.78 229.834 240.927 228.109L105.444 179.944V245.952C105.444 262.101 122.291 275.758 155.517 286.542C184.478 295.942 220.164 301.119 256 301.119C291.836 301.119 327.521 295.942 356.483 286.542C389.709 275.758 406.556 262.101 406.556 245.952V179.944L271.074 228.109C266.22 229.834 261.149 230.709 256 230.709Z" fill="url(#paint2_linear)"/>
<path d="M364.429 533.633V345.103L357.235 345.707C328.385 348.091 300.088 354.988 273.377 366.147L260.714 371.405V559.189L269.936 555.356C297.577 543.856 326.843 536.741 356.678 534.264L364.429 533.633Z" fill="url(#paint3_linear)"/>
<path d="M388 372.975H373.857V537.975C373.866 540.433 371.981 542.487 369.53 542.689L357.456 543.679C353.971 543.967 350.495 544.323 347.033 544.749C345.91 544.885 344.793 545.065 343.677 545.221C341.343 545.532 339.013 545.847 336.691 546.216C335.337 546.432 333.993 546.685 332.644 546.922C330.565 547.286 328.482 547.647 326.408 548.057C324.992 548.34 323.579 548.658 322.136 548.964C320.161 549.383 318.186 549.811 316.225 550.278C314.754 550.628 313.287 550.999 311.826 551.372C309.917 551.844 308.018 552.352 306.122 552.882C304.646 553.287 303.171 553.715 301.7 554.148C299.814 554.705 297.957 555.271 296.094 555.865C294.637 556.337 293.178 556.809 291.725 557.279C289.861 557.907 288.006 558.556 286.157 559.226C284.744 559.739 283.328 560.255 281.883 560.796C281.236 561.042 280.594 561.305 279.949 561.555H388V372.975Z" fill="url(#paint4_linear)"/>
<path d="M154.765 345.707L147.571 345.103V533.647L155.939 534.359C185.755 536.852 214.996 544.01 242.591 555.573L251.286 559.189V371.405L238.637 366.152C211.923 354.99 183.621 348.091 154.765 345.707Z" fill="url(#paint5_linear)"/>
<path d="M124 372.975V561.546H232.127C231.547 561.318 230.967 561.074 230.382 560.858C229.033 560.345 227.673 559.854 226.315 559.359C224.4 558.664 222.487 557.988 220.558 557.341C219.163 556.869 217.763 556.411 216.361 555.964C214.448 555.336 212.529 554.744 210.607 554.192C209.191 553.777 207.778 553.361 206.364 552.965C204.426 552.428 202.483 551.92 200.536 551.42C199.122 551.056 197.707 550.693 196.261 550.354C194.286 549.883 192.3 549.45 190.315 549.024C188.902 548.718 187.486 548.407 186.073 548.124C184.017 547.719 181.953 547.355 179.888 546.994C178.534 546.757 177.181 546.522 175.825 546.28C173.546 545.919 171.26 545.613 168.974 545.304C167.819 545.15 166.673 544.966 165.519 544.834C162.062 544.416 158.604 544.059 155.147 543.764L142.457 542.689C140.01 542.48 138.134 540.429 138.143 537.975V372.975H124Z" fill="url(#paint6_linear)"/>
<defs>
<linearGradient id="paint0_linear" x1="178.063" y1="372.975" x2="178.063" y2="561.546" gradientUnits="userSpaceOnUse">
<stop stop-color="#F4831F"/>
<stop offset="1" stop-color="#F97908"/>
</linearGradient>
<linearGradient id="paint1_linear" x1="178.063" y1="372.975" x2="178.063" y2="561.546" gradientUnits="userSpaceOnUse">
<stop stop-color="#F4831F"/>
<stop offset="1" stop-color="#F97908"/>
</linearGradient>
<linearGradient id="paint2_linear" x1="178.063" y1="372.975" x2="178.063" y2="561.546" gradientUnits="userSpaceOnUse">
<stop stop-color="#F4831F"/>
<stop offset="1" stop-color="#F97908"/>
</linearGradient>
<linearGradient id="paint3_linear" x1="178.063" y1="372.975" x2="178.063" y2="561.546" gradientUnits="userSpaceOnUse">
<stop stop-color="#F4831F"/>
<stop offset="1" stop-color="#F97908"/>
</linearGradient>
<linearGradient id="paint4_linear" x1="178.063" y1="372.975" x2="178.063" y2="561.546" gradientUnits="userSpaceOnUse">
<stop stop-color="#F4831F"/>
<stop offset="1" stop-color="#F97908"/>
</linearGradient>
<linearGradient id="paint5_linear" x1="178.063" y1="372.975" x2="178.063" y2="561.546" gradientUnits="userSpaceOnUse">
<stop stop-color="#F4831F"/>
<stop offset="1" stop-color="#F97908"/>
</linearGradient>
<linearGradient id="paint6_linear" x1="178.063" y1="372.975" x2="178.063" y2="561.546" gradientUnits="userSpaceOnUse">
<stop stop-color="#F4831F"/>
<stop offset="1" stop-color="#F97908"/>
</linearGradient>
</defs>
</svg>
