<svg width="491" height="453" viewBox="0 0 491 453" fill="none" xmlns="http://www.w3.org/2000/svg">
<path d="M488.095 134.614L247.762 1.08799C246.251 0.249987 244.418 0.248988 242.908 1.08599L2.57499 134.398C0.582991 135.503 -0.41001 137.817 0.15999 140.023C0.73099 142.23 2.72199 143.771 5.00099 143.771H26.704V165.47C26.704 168.231 28.942 170.47 31.704 170.47H53.408V192.596C53.408 195.357 55.646 197.596 58.408 197.596H71.21V362.101H58.408C55.646 362.101 53.408 364.34 53.408 367.101V388.81H40.605C37.843 388.81 35.605 391.049 35.605 393.81V415.509H31.704C28.942 415.509 26.704 417.748 26.704 420.509V447.208C26.704 449.969 28.942 452.208 31.704 452.208H458.964C461.726 452.208 463.964 449.969 463.964 447.208V420.51C463.964 417.749 461.726 415.51 458.964 415.51H455.063V393.81C455.063 391.049 452.825 388.81 450.063 388.81H437.26V367.101C437.26 364.34 435.022 362.101 432.26 362.101H419.457V197.596H432.26C435.022 197.596 437.26 195.357 437.26 192.596V170.47H458.964C461.726 170.47 463.964 168.231 463.964 165.47V143.812L485.627 143.985C485.641 143.985 485.654 143.985 485.667 143.985C487.937 143.985 489.923 142.456 490.502 140.258C491.083 138.047 490.093 135.724 488.095 134.614ZM151.321 170.47V192.596C151.321 195.357 153.559 197.596 156.321 197.596H169.124V362.101H156.321C153.559 362.101 151.321 364.34 151.321 367.101V388.81H143.519V367.101C143.519 364.34 141.281 362.101 138.519 362.101H125.716V197.596H138.519C141.281 197.596 143.519 195.357 143.519 192.596V170.47H151.321ZM329.346 388.81H259.235V372.101H272.038H316.544H329.347V388.81H329.346ZM277.038 362.101V197.596H311.544V362.101H277.038ZM316.645 187.596C316.61 187.595 316.578 187.586 316.543 187.586H272.037C272.002 187.586 271.97 187.596 271.935 187.596H259.234V170.887H329.345V187.596H316.645ZM254.235 197.596H267.038V362.101H254.235C251.473 362.101 249.235 364.34 249.235 367.101V388.81H241.432V367.101C241.432 364.34 239.194 362.101 236.432 362.101H223.629V197.596H236.432C239.194 197.596 241.432 195.357 241.432 192.596V170.47H249.235V192.596C249.235 195.357 251.473 197.596 254.235 197.596ZM161.321 170.887H231.432V187.596H218.731C218.696 187.595 218.664 187.586 218.629 187.586H174.123C174.088 187.586 174.056 187.596 174.021 187.596H161.32V170.887H161.321ZM179.124 197.596H213.63V362.101H179.124V197.596ZM174.124 372.101H218.63H231.433V388.81H161.322V372.101H174.124ZM63.408 170.887H133.519V187.596H120.818C120.783 187.595 120.751 187.586 120.716 187.586H76.21C76.175 187.586 76.143 187.596 76.108 187.596H63.408V170.887ZM81.21 197.596H115.716V362.101H81.21V197.596ZM63.408 372.101H76.21H120.716H133.519V388.81H63.408V372.101ZM445.062 415.51H441.601C438.839 415.51 436.601 417.749 436.601 420.51C436.601 423.271 438.839 425.51 441.601 425.51H450.062H453.963V442.209H36.704V425.51H40.605H411.583C414.345 425.51 416.583 423.271 416.583 420.51C416.583 417.749 414.345 415.51 411.583 415.51H45.605V398.81H58.408H138.519H156.321H236.432H254.235H334.346H352.148H432.259H445.062V415.51ZM427.259 388.81H357.148V372.101H369.951H414.457H427.26V388.81H427.259ZM409.457 362.101H374.951V197.596H409.457V362.101ZM427.259 187.596H414.558C414.523 187.595 414.491 187.586 414.456 187.586H369.95C369.915 187.586 369.883 187.596 369.848 187.596H357.147V170.887H427.258V187.596H427.259ZM352.148 197.596H364.951V362.101H352.148C349.386 362.101 347.148 364.34 347.148 367.101V388.81H339.346V367.101C339.346 364.34 337.108 362.101 334.346 362.101H321.543V197.596H334.346C337.108 197.596 339.346 195.357 339.346 192.596V170.47H347.148V192.596C347.148 195.357 349.386 197.596 352.148 197.596ZM459.003 133.771C458.99 133.771 458.976 133.771 458.963 133.771H458.962H444.602C441.84 133.771 439.602 136.01 439.602 138.771C439.602 141.532 441.84 143.771 444.602 143.771H453.963V160.47H36.704V143.771H411.582C414.344 143.771 416.582 141.532 416.582 138.771C416.582 136.01 414.344 133.771 411.582 133.771H31.704H24.323L245.332 11.177L466.091 133.827L459.003 133.771ZM197.949 48.923C196.818 49.873 196.165 51.275 196.165 52.752V108.97C196.165 111.398 197.91 113.476 200.302 113.895L244.471 121.638C244.756 121.688 245.045 121.713 245.334 121.713C245.623 121.713 245.912 121.688 246.197 121.638L290.366 113.895C292.758 113.476 294.503 111.398 294.503 108.97V52.752C294.503 51.275 293.85 49.874 292.719 48.923C291.588 47.973 290.096 47.572 288.64 47.827L245.334 55.418L202.028 47.827C200.574 47.573 199.08 47.974 197.949 48.923ZM206.165 58.704L240.334 64.694V98.004C240.334 100.765 242.572 103.004 245.334 103.004C248.096 103.004 250.334 100.765 250.334 98.004V64.694L284.503 58.704V104.77L250.334 110.76V110.557C250.334 107.796 248.096 105.557 245.334 105.557C242.572 105.557 240.334 107.796 240.334 110.557V110.76L206.165 104.77V58.704V58.704ZM103.463 210.833V352.333C103.463 355.094 101.225 357.333 98.463 357.333C95.701 357.333 93.463 355.094 93.463 352.333V210.833C93.463 208.072 95.701 205.833 98.463 205.833C101.225 205.833 103.463 208.072 103.463 210.833ZM201.376 210.833V352.333C201.376 355.094 199.138 357.333 196.376 357.333C193.614 357.333 191.376 355.094 191.376 352.333V210.833C191.376 208.072 193.614 205.833 196.376 205.833C199.138 205.833 201.376 208.072 201.376 210.833ZM299.29 210.833V352.333C299.29 355.094 297.052 357.333 294.29 357.333C291.528 357.333 289.29 355.094 289.29 352.333V210.833C289.29 208.072 291.528 205.833 294.29 205.833C297.052 205.833 299.29 208.072 299.29 210.833ZM387.204 352.333V210.833C387.204 208.072 389.442 205.833 392.204 205.833C394.966 205.833 397.204 208.072 397.204 210.833V352.333C397.204 355.094 394.966 357.333 392.204 357.333C389.442 357.333 387.204 355.095 387.204 352.333Z" fill="white"/>
</svg>
