<svg width="512" height="476" viewBox="0 0 512 476" fill="none" xmlns="http://www.w3.org/2000/svg">
<path d="M474.5 0.5H37.5C16.822 0.5 0 17.322 0 38V368C0 388.678 16.822 405.5 37.5 405.5H197.557L188.53 437.094C184.905 449.782 170.695 460.5 157.5 460.5H101C96.858 460.5 93.5 463.857 93.5 468C93.5 472.143 96.858 475.5 101 475.5H411C415.142 475.5 418.5 472.143 418.5 468C418.5 463.857 415.142 460.5 411 460.5H354.5C341.305 460.5 327.095 449.781 323.47 437.094L314.443 405.5H474.5C495.178 405.5 512 388.678 512 368V38C512 17.322 495.178 0.5 474.5 0.5ZM37.5 15.5H474.5C486.907 15.5 497 25.594 497 38V300.5H15V38C15 25.594 25.093 15.5 37.5 15.5ZM309.047 441.215C311.105 448.42 315.196 455.039 320.559 460.5H191.441C196.804 455.039 200.895 448.419 202.953 441.215L213.157 405.5H298.842L309.047 441.215ZM474.5 390.5H37.5C25.093 390.5 15 380.406 15 368V315.5H497V368C497 380.406 486.907 390.5 474.5 390.5Z" fill="white"/>
<path d="M37.5 285.5H474.5C478.642 285.5 482 282.143 482 278V38C482 33.857 478.642 30.5 474.5 30.5H37.5C33.358 30.5 30 33.857 30 38V143C30 147.143 33.358 150.5 37.5 150.5C41.642 150.5 45 147.143 45 143V45.5H467V270.5H45V173C45 168.857 41.642 165.5 37.5 165.5C33.358 165.5 30 168.857 30 173V278C30 282.143 33.358 285.5 37.5 285.5Z" fill="white"/>
<path d="M256 330.5C243.593 330.5 233.5 340.594 233.5 353C233.5 365.406 243.593 375.5 256 375.5C268.407 375.5 278.5 365.406 278.5 353C278.5 340.594 268.407 330.5 256 330.5ZM256 360.5C251.864 360.5 248.5 357.136 248.5 353C248.5 348.864 251.864 345.5 256 345.5C260.136 345.5 263.5 348.864 263.5 353C263.5 357.136 260.136 360.5 256 360.5Z" fill="white"/>
</svg>
