<svg width="420" height="512" viewBox="0 0 420 512" fill="none" xmlns="http://www.w3.org/2000/svg">
<path d="M230.807 452H189.194C183.671 452 179.194 456.478 179.194 462C179.194 467.522 183.671 472 189.194 472H230.807C236.33 472 240.807 467.522 240.807 462C240.807 456.478 236.33 452 230.807 452Z" fill="white"/>
<path d="M410 80.001H350V58.28C361.639 54.152 370 43.037 370 30C370 13.458 356.542 0 340 0H80C63.458 0 50 13.458 50 30.001C50 43.037 58.361 54.152 70 58.28V80.001H10C4.477 80.001 0 84.479 0 90.001V160.001C0 204.113 35.888 240.001 80 240.001H88.455C90.377 243.351 92.431 246.641 94.642 249.85C108.797 270.396 127.901 286.641 150.212 297.242C150.077 298.394 150 299.564 150 300.752C150 314.763 159.657 326.559 172.663 329.841C160.647 369.876 139.294 412 114 412H90C84.957 412 80.703 415.755 80.077 420.76L70.077 500.76C69.721 503.606 70.605 506.468 72.503 508.618C74.401 510.768 77.132 512 80 512H340C342.868 512 345.599 510.769 347.497 508.618C349.395 506.468 350.279 503.605 349.923 500.76L339.923 420.76C339.298 415.755 335.044 412 330 412H306C290.691 412 277.756 395.925 269.601 382.438C259.121 365.108 251.802 344.694 247.339 329.839C260.345 326.557 270 314.761 270 300.751C270 299.563 269.923 298.394 269.788 297.241C292.103 286.639 311.209 270.39 325.365 249.84C327.573 246.634 329.625 243.348 331.545 240.001H340C384.112 240.001 420 204.113 420 160.001V90.001C420 84.479 415.523 80.001 410 80.001V80.001ZM20 160.001V100.001H70V170.751C70 187.731 73.08 204.345 78.997 219.976C46.375 219.436 20 192.749 20 160.001ZM328.672 492H91.328L98.828 432H321.172L328.672 492ZM266.578 412H153.423C158.282 406.674 162.968 400.295 167.468 392.863C180.25 371.753 188.641 346.882 193.23 330.751H226.771C231.364 346.899 239.738 371.707 252.487 392.788C257.001 400.252 261.702 406.656 266.578 412V412ZM240 310.751H180C174.486 310.751 170 306.265 170 300.751C170 295.237 174.486 290.751 180 290.751H240C245.514 290.751 250 295.237 250 300.751C250 306.265 245.514 310.751 240 310.751ZM260.948 279.304C255.537 274.018 248.144 270.751 240 270.751H180C171.856 270.751 164.464 274.018 159.052 279.304C116.892 259.452 90 217.561 90 170.751V60H164.997C170.52 60 174.997 55.522 174.997 50C174.997 44.478 170.52 40 164.997 40H80C74.486 40 70 35.514 70 30C70 24.486 74.486 20 80 20H340C345.514 20 350 24.486 350 30.001C350 35.515 345.514 40 340 40H254.997C249.474 40 244.997 44.478 244.997 50C244.997 55.522 249.474 60 254.997 60H330V170.751C330 217.559 303.107 259.452 260.948 279.304ZM400 160.001C400 192.749 373.625 219.436 341.003 219.976C346.92 204.346 350 187.731 350 170.751V100.001H400V160.001Z" fill="white"/>
<path d="M261.09 130.399L238.662 126.426L227.524 105.937C227.524 105.936 227.523 105.934 227.522 105.933C225.653 102.498 222.838 99.709 219.383 97.867C214.678 95.358 209.278 94.832 204.178 96.383C199.077 97.936 194.886 101.382 192.375 106.09L181.667 126.191L159.174 130.372C155.144 131.019 151.459 132.857 148.506 135.696C144.661 139.395 142.487 144.369 142.383 149.704C142.279 155.038 144.259 160.094 147.966 163.945L163.786 180.354L160.884 202.482C160.105 206.705 160.686 210.97 162.573 214.845C164.911 219.647 168.979 223.25 174.028 224.991C176.165 225.728 178.37 226.095 180.566 226.095C183.557 226.095 186.533 225.415 189.301 224.068L209.766 214.106L230.829 224.141C234.345 225.819 238.267 226.421 242.17 225.88C247.456 225.15 252.14 222.403 255.361 218.149C258.581 213.895 259.952 208.64 259.219 203.341L256.065 180.772L271.531 164.459C274.589 161.505 276.589 157.733 277.323 153.528C279.217 142.668 271.925 132.291 261.09 130.399V130.399ZM257.193 150.512L238.237 170.506C236.143 172.714 235.169 175.756 235.59 178.77L239.435 206.087L214.018 193.979C211.27 192.671 208.077 192.683 205.34 194.016L180.553 206.098C180.602 205.861 180.642 205.622 180.673 205.383L184.241 178.181C184.637 175.163 183.637 172.13 181.525 169.94L162.347 150.118C162.46 150.101 162.573 150.082 162.685 150.061L190.053 144.975C193.045 144.418 195.621 142.531 197.052 139.845L209.971 115.528L223.389 140.211C224.842 142.884 227.434 144.751 230.431 145.281L257.627 150.08C257.479 150.219 257.333 150.363 257.193 150.512V150.512Z" fill="white"/>
<path d="M210 60C215.523 60 220 55.522 220 50C220 44.478 215.523 40 210 40H209.993C204.47 40 199.997 44.478 199.997 50C199.997 55.522 204.477 60 210 60Z" fill="white"/>
</svg>
